# xmcd
#
# Track frame offsets:
#	150
#	8070
#	22240
#	43213
#	62365
#	79729
#	91097
#	108760
#	127758
#	150419
#	171065
#	184936
#	269094
#
# Disc length: 3594 seconds
#
# Revision: 1
# Processed by: cddbd v1.5.1PL0 Copyright (c) Steve Scherf et al.
# Submitted via: audiograbber 1.81.02
#
DISCID=9b0e080d
DTITLE=Masayah - Masayah
DYEAR=2002
DGENRE=R&B
TTITLE0=Intro
TTITLE1=Can't Deny
TTITLE2=Gotta Have U
TTITLE3=All About You
TTITLE4=One Dance
TTITLE5=My Life
TTITLE6=Shorty
TTITLE7=Move Along (featuring Omar)
TTITLE8=Why
TTITLE9=U n I
TTITLE10=Still
TTITLE11=15
TTITLE12=Data Track
EXTD=
EXTT0=
EXTT1=
EXTT2=
EXTT3=
EXTT4=
EXTT5=
EXTT6=
EXTT7=
EXTT8=
EXTT9=
EXTT10=
EXTT11=
EXTT12=
PLAYORDER=
